<svg width="24" height="24" viewBox="0 0 24 24" fill="none" xmlns="http://www.w3.org/2000/svg">
<g clip-path="url(#clip0_135_3234)">
<path d="M16.5206 7.38585C16.7647 7.62993 16.7647 8.02566 16.5206 8.26973L12.8967 11.8937L16.627 15.6239C16.871 15.868 16.871 16.2637 16.627 16.5078C16.3829 16.7519 15.9872 16.7519 15.7431 16.5078L12.0128 12.7775L8.21212 16.5782C7.96816 16.8222 7.57303 16.8227 7.32893 16.5789C7.08485 16.3349 7.08416 15.9384 7.32823 15.6944L11.1289 11.8937L7.43458 8.1993C7.1905 7.95522 7.1905 7.55949 7.43458 7.31542C7.67865 7.07134 8.07438 7.07134 8.31846 7.31542L12.0128 11.0098L15.6367 7.38585C15.8807 7.14189 16.2765 7.14212 16.5206 7.38585Z" fill="black"/>
</g>
<defs>
<clipPath id="clip0_135_3234">
<rect width="16" height="16" fill="white" transform="translate(4 4)"/>
</clipPath>
</defs>
</svg>
