<svg width="24" height="24" viewBox="0 0 24 24" fill="none" xmlns="http://www.w3.org/2000/svg">
<path d="M12.0305 5.76289C15.4916 5.76316 18.2971 8.56932 18.2971 12.0305C18.2969 15.4914 15.4915 18.2968 12.0305 18.2971C8.56936 18.2971 5.76319 15.4916 5.76294 12.0305C5.76294 8.56916 8.5692 5.76289 12.0305 5.76289ZM12.0305 7.01289C9.25956 7.01289 7.01294 9.25951 7.01294 12.0305C7.01319 14.8012 9.25971 17.0471 12.0305 17.0471C14.8011 17.0468 17.0469 14.8011 17.0471 12.0305C17.0471 9.25968 14.8013 7.01316 12.0305 7.01289ZM12.0305 8.8752C12.3755 8.87546 12.6555 9.15518 12.6555 9.5002L12.6545 12.2502C12.6544 12.5953 12.3747 12.8752 12.0295 12.8752C11.6847 12.8749 11.4046 12.5951 11.4045 12.2502L11.4055 9.5002C11.4055 9.15502 11.6853 8.8752 12.0305 8.8752Z" fill="black"/>
<path d="M12 14.25V14.275" stroke="black" stroke-width="1.25" stroke-linecap="round"/>
</svg>
