<svg width="24" height="24" viewBox="0 0 24 24" fill="none" xmlns="http://www.w3.org/2000/svg">
<path d="M15.7862 17.4584C15.0513 18.1708 14.2489 18.0583 13.4765 17.7208C12.6591 17.3759 11.9092 17.3609 11.0468 17.7208C9.96692 18.1858 9.39699 18.0508 8.75207 17.4584C5.09253 13.6863 5.63246 7.94207 9.78694 7.73209C10.7993 7.78459 11.5042 8.28702 12.0966 8.33202C12.9815 8.15204 13.8289 7.6346 14.7738 7.7021C15.9062 7.79208 16.7611 8.24203 17.3235 9.05193C14.9838 10.4542 15.5387 13.5364 17.6834 14.3988C17.256 15.5236 16.7011 16.641 15.7787 17.4659L15.7862 17.4584ZM12.0217 7.6871C11.9092 6.01481 13.2665 4.63498 14.8263 4.5C15.0438 6.43476 13.0715 7.87457 12.0217 7.6871Z" fill="black"/>
</svg>
