<svg width="24" height="24" viewBox="0 0 24 24" fill="none" xmlns="http://www.w3.org/2000/svg">
<path d="M11.9746 5.5C12.3198 5.5 12.5996 5.77982 12.5996 6.125V11.25H17.875C18.2202 11.25 18.5 11.5298 18.5 11.875C18.5 12.2202 18.2202 12.5 17.875 12.5H12.5996V17.875C12.5996 18.22 12.3205 18.4997 11.9756 18.5C11.6304 18.5 11.3496 18.2202 11.3496 17.875V12.5H6.125C5.77982 12.5 5.5 12.2202 5.5 11.875C5.5 11.5298 5.77982 11.25 6.125 11.25H11.3496V6.125C11.3496 5.77998 11.6297 5.50026 11.9746 5.5Z" fill="black"/>
</svg>
