<svg width="24" height="24" viewBox="0 0 24 24" fill="none" xmlns="http://www.w3.org/2000/svg">
<path d="M16.667 5.375C17.1863 5.37509 17.6846 5.58106 18.0518 5.94824C18.4189 6.31542 18.6249 6.81374 18.625 7.33301V16.667C18.6249 17.1863 18.4189 17.6846 18.0518 18.0518C17.6846 18.4189 17.1863 18.6249 16.667 18.625H7.33301C6.81374 18.6249 6.31542 18.4189 5.94824 18.0518C5.58106 17.6846 5.37509 17.1863 5.375 16.667V14.667C5.375 14.3218 5.65482 14.042 6 14.042C6.34518 14.042 6.625 14.3218 6.625 14.667V16.667C6.62509 16.8547 6.69927 17.0352 6.83203 17.168C6.96479 17.3007 7.14526 17.3749 7.33301 17.375H16.667C16.8547 17.3749 17.0352 17.3007 17.168 17.168C17.3007 17.0352 17.3749 16.8547 17.375 16.667V7.33301C17.3749 7.14526 17.3007 6.96479 17.168 6.83203C17.0352 6.69927 16.8547 6.62509 16.667 6.625H7.33301C7.14526 6.62509 6.96479 6.69927 6.83203 6.83203C6.69927 6.96479 6.62509 7.14526 6.625 7.33301V9.33301C6.625 9.67819 6.34518 9.95801 6 9.95801C5.65482 9.95801 5.375 9.67819 5.375 9.33301V7.33301C5.37509 6.81374 5.58106 6.31542 5.94824 5.94824C6.31542 5.58106 6.81374 5.37509 7.33301 5.375H16.667ZM10.2246 8.8916C10.4686 8.64779 10.8643 8.6479 11.1084 8.8916L13.7754 11.5586C14.0192 11.8026 14.0192 12.1984 13.7754 12.4424L11.1084 15.1094C10.8644 15.353 10.4686 15.3531 10.2246 15.1094C9.98067 14.8654 9.98094 14.4697 10.2246 14.2256L11.8242 12.626H6C5.65509 12.626 5.37544 12.3458 5.375 12.001C5.375 11.6558 5.65482 11.376 6 11.376H11.8252L10.2246 9.77637C9.98061 9.53237 9.98078 9.1357 10.2246 8.8916Z" fill="black"/>
</svg>
