<svg width="24" height="24" viewBox="0 0 24 24" fill="none" xmlns="http://www.w3.org/2000/svg">
<path d="M11.4209 6H12.5791C13.0392 6 13.2696 6 13.4784 6.06351C13.6633 6.12001 13.8354 6.21204 13.9851 6.33446C14.1534 6.47365 14.2811 6.66486 14.5365 7.04797L15.3088 8.20608C16.3385 8.20608 16.8534 8.20608 17.2466 8.40608C17.5923 8.58242 17.8733 8.86364 18.0493 9.20946C18.25 9.6027 18.25 10.1176 18.25 11.1473V14.9655C18.25 15.9953 18.25 16.5101 18.0493 16.9027C17.8734 17.2488 17.5924 17.5302 17.2466 17.7068C16.8534 17.9068 16.3385 17.9068 15.3088 17.9068H8.69122C7.66149 17.9068 7.14662 17.9068 6.75338 17.7068C6.40811 17.5304 6.12635 17.2493 5.95068 16.9034C5.75 16.5101 5.75 15.9953 5.75 14.9655V11.1473C5.75 10.1176 5.75 9.6027 5.95068 9.21014C6.1266 8.86406 6.4076 8.58259 6.75338 8.40608C7.14662 8.20608 7.66149 8.20608 8.69122 8.20608L9.46351 7.04797L9.47232 7.03476C9.72186 6.66044 9.8479 6.47137 10.0149 6.33446C10.1642 6.21216 10.3365 6.11959 10.5216 6.06351C10.7304 6 10.9608 6 11.4209 6Z" stroke="black" stroke-width="1.15741" stroke-linecap="round" stroke-linejoin="round"/>
<path d="M13.8729 13.548C13.9748 13.3021 14.0272 13.0385 14.0272 12.7723C14.0272 12.2347 13.8136 11.7191 13.4335 11.339C13.0534 10.9588 12.5378 10.7453 12.0002 10.7453C11.4626 10.7453 10.947 10.9588 10.5668 11.339C10.1867 11.7191 9.97314 12.2347 9.97314 12.7723C9.97314 13.0385 10.0256 13.3021 10.1274 13.548C10.2293 13.7939 10.3786 14.0174 10.5668 14.2056C10.7551 14.3938 10.9785 14.5432 11.2245 14.645C11.4704 14.7469 11.734 14.7993 12.0002 14.7993C12.2664 14.7993 12.53 14.7469 12.7759 14.645C13.0218 14.5432 13.2453 14.3938 13.4335 14.2056C13.6217 14.0174 13.771 13.7939 13.8729 13.548Z" stroke="black" stroke-width="1.15741" stroke-linecap="round" stroke-linejoin="round"/>
</svg>
