<svg width="24" height="24" viewBox="0 0 24 24" fill="none" xmlns="http://www.w3.org/2000/svg">
<path d="M12.0312 5.74316C12.8567 5.74324 13.6749 5.9058 14.4375 6.22168C15.2 6.53762 15.8929 7.00133 16.4766 7.58496C17.0602 8.16868 17.5239 8.8614 17.8398 9.62402C18.1558 10.3867 18.3183 11.2047 18.3184 12.0303C18.3183 12.8557 18.1557 13.6739 17.8398 14.4365C17.524 15.199 17.0601 15.8919 16.4766 16.4756C15.893 17.0592 15.2 17.5229 14.4375 17.8389C13.6749 18.1547 12.8567 18.3173 12.0312 18.3174C11.2057 18.3174 10.3877 18.1547 9.625 17.8389C8.86235 17.523 8.16967 17.0593 7.58594 16.4756C7.00222 15.8919 6.5386 15.1992 6.22266 14.4365C5.90674 13.6738 5.74318 12.8558 5.74316 12.0303C5.7432 11.2047 5.90674 10.3867 6.22266 9.62402C6.5386 8.86148 7.00228 8.16862 7.58594 7.58496C8.16962 7.00138 8.86246 6.53756 9.625 6.22168C10.3876 5.90587 11.2058 5.74316 12.0312 5.74316ZM14.3604 10.3301C14.1164 10.0863 13.7206 10.0864 13.4766 10.3301L11.4014 12.4043L10.5859 11.5889C10.3419 11.3448 9.94525 11.3448 9.70117 11.5889C9.45745 11.8329 9.45739 12.2287 9.70117 12.4727L10.96 13.7305C11.2041 13.9743 11.5998 13.9745 11.8438 13.7305L14.3604 11.2148C14.6043 10.9709 14.6042 10.5742 14.3604 10.3301Z" fill="black"/>
</svg>
