<svg width="24" height="24" viewBox="0 0 24 24" fill="none" xmlns="http://www.w3.org/2000/svg">
<path d="M15.3949 18.2485C16.0116 18.2306 16.6071 18.0192 17.0971 17.6441C17.587 17.2691 17.9466 16.7502 18.125 16.1596C18.2059 15.8904 18.25 15.6044 18.25 15.3088V8.69118C18.25 7.91113 17.9401 7.16303 17.3885 6.61145C16.837 6.05987 16.0889 5.75 15.3088 5.75H8.69118C7.91113 5.75 7.16303 6.05987 6.61145 6.61145C6.05987 7.16303 5.75 7.91113 5.75 8.69118V15.3603C5.7635 16.1314 6.07932 16.8663 6.62944 17.4068C7.17956 17.9473 7.91996 18.2501 8.69118 18.25H15.3088L15.3949 18.2485ZM18.125 16.1596L18.0603 16.0831L16.2471 13.8949C16.1095 13.7289 15.9371 13.5952 15.7421 13.5032C15.5471 13.4112 15.3343 13.3633 15.1187 13.3627C14.9031 13.3622 14.69 13.409 14.4945 13.4999C14.299 13.5909 14.1259 13.7237 13.9875 13.889L13.0228 15.0404L12.8654 15.2324M5.75074 15.361L5.88088 15.2132L8.23824 12.3993C8.37626 12.2345 8.54872 12.1021 8.74347 12.0112C8.93822 11.9203 9.15052 11.8732 9.36544 11.8732C9.58036 11.8732 9.79266 11.9203 9.98741 12.0112C10.1822 12.1021 10.3546 12.2345 10.4926 12.3993L12.8654 15.2324L15.3265 18.1706L15.3949 18.2485" stroke="black" stroke-width="1.25" stroke-linecap="round" stroke-linejoin="round"/>
<path d="M14.2729 10.8302C14.882 10.8302 15.3758 10.3363 15.3758 9.72721C15.3758 9.11807 14.882 8.62427 14.2729 8.62427C13.6637 8.62427 13.1699 9.11807 13.1699 9.72721C13.1699 10.3363 13.6637 10.8302 14.2729 10.8302Z" fill="black"/>
</svg>
