<svg width="24" height="24" viewBox="0 0 24 24" fill="none" xmlns="http://www.w3.org/2000/svg">
<path d="M12.0312 5.74316C12.8567 5.74324 13.6749 5.9058 14.4375 6.22168C15.2 6.53762 15.8929 7.00133 16.4766 7.58496C17.0602 8.16868 17.5239 8.8614 17.8398 9.62402C18.1558 10.3867 18.3183 11.2047 18.3184 12.0303C18.3183 12.8557 18.1557 13.6739 17.8398 14.4365C17.524 15.199 17.0601 15.8919 16.4766 16.4756C15.893 17.0592 15.2 17.5229 14.4375 17.8389C13.6749 18.1547 12.8567 18.3173 12.0312 18.3174C11.2057 18.3174 10.3877 18.1547 9.625 17.8389C8.86235 17.523 8.16967 17.0593 7.58594 16.4756C7.00222 15.8919 6.5386 15.1992 6.22266 14.4365C5.90674 13.6738 5.74318 12.8558 5.74316 12.0303C5.7432 11.2047 5.90674 10.3867 6.22266 9.62402C6.5386 8.86148 7.00228 8.16862 7.58594 7.58496C8.16962 7.00138 8.86246 6.53756 9.625 6.22168C10.3876 5.90587 11.2058 5.74316 12.0312 5.74316ZM9.36328 11.4053C9.01867 11.4056 8.73871 11.6847 8.73828 12.0293C8.73828 12.3745 9.01909 12.6553 9.36426 12.6553L12.6543 12.6543L14.6953 12.6553C15.0404 12.6552 15.3213 12.3744 15.3213 12.0293C15.3209 11.6847 15.0409 11.4057 14.6963 11.4053L12.6553 11.4043L9.36328 11.4053Z" fill="black"/>
</svg>
