<svg width="24" height="24" viewBox="0 0 24 24" fill="none" xmlns="http://www.w3.org/2000/svg">
<path d="M11.25 13.125C12.0125 13.125 12.744 13.4276 13.2832 13.9668C13.8224 14.506 14.125 15.2375 14.125 16V16.75C14.125 17.1147 13.9805 17.4648 13.7227 17.7227C13.4648 17.9805 13.1147 18.125 12.75 18.125H6.75C6.38533 18.125 6.03521 17.9805 5.77734 17.7227C5.51948 17.4648 5.375 17.1147 5.375 16.75V16C5.375 15.2375 5.67763 14.506 6.2168 13.9668C6.75596 13.4276 7.4875 13.125 8.25 13.125H11.25ZM8.25 14.375C7.81902 14.375 7.40533 14.5458 7.10059 14.8506C6.79584 15.1553 6.625 15.569 6.625 16V16.75C6.625 16.7832 6.63769 16.8154 6.66113 16.8389C6.68457 16.8623 6.71685 16.875 6.75 16.875H12.75C12.7832 16.875 12.8154 16.8623 12.8389 16.8389C12.8623 16.8154 12.875 16.7832 12.875 16.75V16C12.875 15.569 12.7042 15.1553 12.3994 14.8506C12.0947 14.5458 11.681 14.375 11.25 14.375H8.25ZM16.5 10.125C16.8452 10.125 17.125 10.4048 17.125 10.75V11.625H18C18.3452 11.625 18.625 11.9048 18.625 12.25C18.625 12.5952 18.3452 12.875 18 12.875H17.125V13.75C17.125 14.0952 16.8452 14.375 16.5 14.375C16.1548 14.375 15.875 14.0952 15.875 13.75V12.875H15C14.6548 12.875 14.375 12.5952 14.375 12.25C14.375 11.9048 14.6548 11.625 15 11.625H15.875V10.75C15.875 10.4048 16.1548 10.125 16.5 10.125ZM9.75 6.375C10.5125 6.375 11.244 6.67763 11.7832 7.2168C12.3224 7.75596 12.625 8.4875 12.625 9.25C12.625 10.0125 12.3224 10.744 11.7832 11.2832C11.244 11.8224 10.5125 12.125 9.75 12.125C8.9875 12.125 8.25596 11.8224 7.7168 11.2832C7.17763 10.744 6.875 10.0125 6.875 9.25C6.875 8.4875 7.17763 7.75596 7.7168 7.2168C8.25596 6.67763 8.9875 6.375 9.75 6.375ZM9.75 7.625C9.31902 7.625 8.90533 7.79584 8.60059 8.10059C8.29584 8.40533 8.125 8.81902 8.125 9.25C8.125 9.68098 8.29584 10.0947 8.60059 10.3994C8.90533 10.7042 9.31902 10.875 9.75 10.875C10.181 10.875 10.5947 10.7042 10.8994 10.3994C11.2042 10.0947 11.375 9.68098 11.375 9.25C11.375 8.81902 11.2042 8.40533 10.8994 8.10059C10.5947 7.79584 10.181 7.625 9.75 7.625Z" fill="black"/>
</svg>
